# AST/ASF file generated using VICON BodyLanguage
# -----------------------------------------------
:version 1.10
:name VICON
:units
  mass 1.0
  length 0.45
  angle deg
:documentation
   .ast/.asf automatically generated from VICON data using
   VICON BodyBuilder and BodyLanguage model FoxedUp or BRILLIANT.MOD
:root
   order TX TY TZ RX RY RZ
   axis XYZ
   position 0 0 0  
   orientation 0 0 0 
:bonedata
  begin
     id 1 
     name lhipjoint
     direction 0.521689 -0.742065 0.420928 
     length 2.47002 
     axis 0 0 0  XYZ
  end
  begin
     id 2 
     name lfemur
     direction 0.34202 -0.939693 0  
     length 7.24654  
     axis 0 0 20  XYZ
    dof rx ry rz
    limits (-160.0 20.0)
           (-70.0 70.0)
           (-60.0 70.0)
  end
  begin
     id 3 
     name ltibia
     direction 0.34202 -0.939693 0   
     length 8.04849   
     axis 0 0 20   XYZ
    dof rx
    limits (-10.0 170.0)
  end
  begin
     id 4 
     name lfoot
     direction 0.0745411 -0.2048 0.975961   
     length 1.72367   
     axis -90 7.62852e-016 20   XYZ
    dof rx rz
    limits (-45.0 90.0)
           (-70.0 20.0)
  end
  begin
     id 5 
     name ltoes
     direction 1.53556e-011 -4.21901e-011 1   
     length 0.87311   
     axis -90 7.62852e-016 20   XYZ
    dof rx
    limits (-90.0 20.0)
  end
  begin
     id 6 
     name rhipjoint
     direction -0.52849 -0.738415 0.418857   
     length 2.48223  
     axis 0 0 0  XYZ 
  end
  begin
     id 7 
     name rfemur
     direction -0.34202 -0.939693 0   
     length 7.15571   
     axis 0 0 -20   XYZ
    dof rx ry rz
    limits (-160.0 20.0)
           (-70.0 70.0)
           (-70.0 60.0)
  end
  begin
     id 8 
     name rtibia
     direction -0.34202 -0.939693 0   
     length 7.81659   
     axis 0 0 -20   XYZ
    dof rx
    limits (-10.0 170.0)
 end
 begin
     id 9 
     name rfoot
     direction -0.0917348 -0.252039 0.963359   
     length 1.84382  
     axis -90 -7.62852e-016 -20   XYZ
    dof rx rz
    limits (-45.0 90.0)
           (-20.0 70.0)
  end
  begin
     id 10 
     name rtoes
     direction -1.53551e-011 -4.21879e-011 1   
     length 0.927771   
     axis -90 -7.62852e-016 -20   XYZ
    dof rx
    limits (-90.0 20.0)
  end
  begin
     id 11 
     name lowerback
     direction 0.00583058 0.999822 0.0179296   
     length 2.1429   
     axis 0 0 0   XYZ
    dof rx ry rz
    limits (-20.0 45.0)
           (-30.0 30.0)
           (-30.0 30.0)
  end
  begin
     id 12 
     name upperback
     direction -0.0137999 0.999752 -0.0175071   
     length 2.14252   
     axis 0 0 0   XYZ
    dof rx ry rz
    limits (-20.0 45.0)
           (-30.0 30.0)
           (-30.0 30.0)
  end
  begin
     id 13 
     name thorax
     direction -0.0158036 0.99955 -0.0254909   
     length 2.1383   
     axis 0 0 0   XYZ
    dof rx ry rz
    limits (-20.0 45.0)
           (-30.0 30.0)
           (-30.0 30.0)
  end
  begin
     id 14 
     name lowerneck
     direction -0.0101179 0.999403 -0.0330262   
     length 1.65808   
     axis 0 0 0   XYZ
    dof rx ry rz
    limits (-20.0 45.0)
           (-30.0 30.0)
           (-30.0 30.0)
  end
  begin
     id 15 
     name upperneck
     direction 0.0497734 0.995978 -0.074501   
     length 1.5897   
     axis 0 0 0   XYZ
    dof rx ry rz
    limits (-20.0 45.0)
           (-30.0 30.0)
           (-30.0 30.0)
  end
  begin
     id 16
     name head
     direction 0.0189524 0.999519 -0.0245438  
     length 1.74024  
     axis 0 0 0   XYZ
    dof rx ry rz
    limits (-20.0 45.0)
           (-30.0 30.0)
           (-30.0 30.0)
  end
  begin
     id 17 
     name lclavicle
     direction 0.945604 0.324422 0.0241537  
     length 3.59089  
     axis 0 0 0   XYZ
    dof ry rz
    limits (-20.0 10.0)
           (0.0 20.0)
  end
  begin
     id 18 
     name lhumerus
     direction 1 -4.48964e-011 -2.63524e-027   
     length 5.2391   
     axis 180 -30 -90   XYZ
    dof rx ry rz
    limits (-60.0 90.0)
           (-90.0 90.0)
           (-90.0 90.0)
  end
  begin
     id 19
     name lradius
     direction 1 -4.48969e-011 3.86978e-028   
     length 3.31467   
     axis 180 -30 -90   XYZ
    dof rx
    limits (-10.0 170.0)
  end
  begin
     id 20
     name lwrist
     direction 1 -4.48963e-011 7.20928e-028   
     length 1.65734   
     axis -5.52449e-016 90 90   XYZ
    dof ry
    limits (-180.0 0.0)
 end
  begin
     id 21 
     name lhand
     direction 1 -4.48964e-011 1.44186e-027   
     length 0.9659   
     axis -9.20027e-016 90 90   XYZ
    dof rx rz
    limits (-90.0 90.0)
           (-45.0 45.0)
  end
  begin
     id 22 
     name lfingers
     direction 1 -4.48965e-011 2.88371e-027   
     length 0.778733   
     axis -1.84005e-015 90 90   XYZ
    dof rx
    limits (0.0 90.0)
  end
  begin
     id 23
     name lthumb
     direction 0.707107 -6.34931e-011 0.707107   
     length 1.11811   
     axis -90 45 2.85299e-015   XYZ
    dof rx rz
    limits (-45.0 45.0)
           (-45.0 45.0)
  end
  begin
     id 24 
     name rclavicle
     direction -0.923762 0.370785 0.0958234   
     length 3.54196  
     axis 0 0 0   XYZ 
    dof ry rz
    limits (-10.0 20.0)
           (-20.0 0.0)
  end
  begin
     id 25 
     name rhumerus
     direction -1 -4.48966e-011 1.18702e-017  
     length 5.30252   
     axis 180 30 90   XYZ
    dof rx ry rz
    limits (-90.0 60.0)
           (-90.0 90.0)
           (-90.0 90.0)
  end
  begin
     id 26 
     name rradius
     direction -1 -4.48966e-011 4.46736e-027   
     length 3.67875   
     axis 180 30 90   XYZ
    dof rx
    limits (-10.0 170.0)
  end
  begin
     id 27 
     name rwrist
     direction -1 -4.48966e-011 7.20928e-028   
     length 1.83937   
     axis -5.52449e-016 -90 -90   XYZ
    dof ry
    limits (-180.0 0.0)
  end
  begin
     id 28
     name rhand
     direction -1 -4.48973e-011 1.44186e-027   
     length 0.594811   
     axis -9.20027e-016 -90 -90   XYZ
    dof rx rz
    limits (-90.0 90.0)
           (-45.0 45.0)
  end
  begin
     id 29
     name rfingers
     direction -1 -4.48963e-011 2.88371e-027   
     length 0.479552   
     axis -1.84005e-015 -90 -90   XYZ
    dof rx
    limits (0.0 90.0)
  end
  begin
     id 30
     name rthumb
     direction -0.707107 -6.34932e-011 0.707107   
     length 0.688544   
     axis -90 -45 -2.85299e-015   XYZ
    dof rx rz
    limits (-45.0 45.0)
           (-45.0 45.0)
  end
:hierarchy
  begin
    root lhipjoint rhipjoint lowerback
    lhipjoint lfemur
    lfemur ltibia
    ltibia lfoot
    lfoot ltoes
    rhipjoint rfemur
    rfemur rtibia
    rtibia rfoot
    rfoot rtoes
    lowerback upperback
    upperback thorax
    thorax lowerneck lclavicle rclavicle
    lowerneck upperneck
    upperneck head
    lclavicle lhumerus
    lhumerus lradius
    lradius lwrist
    lwrist lhand lthumb
    lhand lfingers
    rclavicle rhumerus
    rhumerus rradius
    rradius rwrist
    rwrist rhand rthumb
    rhand rfingers
  end

#!OML:ASF E:\acrobat2\Project_11_07_03\Capture day 1\Session 1\Acrobat.ASF
:FULLY-SPECIFIED
:DEGREES
197
root 6.56734 18.0909 -31.9085 5.36105 4.16232 1.22357
lowerback -6.85508 0.574723 -0.979236
upperback -1.75022 0.87541 -1.66573
thorax 2.0491 0.434862 -1.09042
lowerneck -1.80987 -2.69151 -1.0197
upperneck 7.41847 -3.79884 3.35504
head 2.76658 -1.81354 1.13984
rclavicle 4.31114e-015 2.94201e-014
rhumerus -40.7353 -9.72169 -77.1144
rradius 23.4148
rwrist 9.28737
rhand 4.62194 -23.2111
rfingers 7.12502
rthumb 30.0093 -50.7967
lclavicle 4.31114e-015 2.94201e-014
lhumerus -32.5666 -7.70503 85.9535
lradius 22.4884
lwrist 8.07683
lhand -7.38284 -14.1615
lfingers 7.12502
lthumb 18.5026 14.9785
rfemur 3.00321 9.75816 20.0354
rtibia 1.95573
rfoot -22.2972 -20.1981
rtoes 2.60257
lfemur -2.18335 -2.61949 -18.3865
ltibia 6.19849
lfoot -6.78916 -8.35891
ltoes 25.4669
198
root 6.56598 18.0907 -31.9172 5.47695 4.31285 1.12992
lowerback -6.79949 0.518417 -0.951815
upperback -1.70068 0.797353 -1.62158
thorax 2.06798 0.395993 -1.06721
lowerneck -2.11319 -2.66753 -1.04601
upperneck 7.49136 -3.76819 3.36342
head 2.84768 -1.79508 1.14479
rclavicle 8.98258e-015 1.59028e-015
rhumerus -40.554 -9.71139 -77.1603
rradius 23.4148
rwrist 9.31736
rhand 4.70483 -23.3694
rfingers 7.12502
rthumb 30.0884 -50.9406
lclavicle 8.98258e-015 1.59028e-015
lhumerus -32.4595 -7.69546 85.9556
lradius 22.5601
lwrist 8.10133
lhand -7.33514 -13.8516
lfingers 7.12502
lthumb 18.5485 15.2841
rfemur 2.67556 9.61674 20.1243
rtibia 2.29475
rfoot -22.5671 -20.1343
rtoes 1.74215
lfemur -2.65145 -2.58663 -18.2413
ltibia 6.73197
lfoot -6.80907 -8.72611
ltoes 26.1639
199
root 6.57381 18.0923 -31.9161 5.46432 4.29659 1.14771
lowerback -6.70698 0.478522 -0.931497
upperback -1.52228 0.744203 -1.61568
thorax 2.19979 0.369366 -1.07704
lowerneck -2.83667 -2.6409 -1.25858
upperneck 7.96252 -3.74436 3.48907
head 3.15253 -1.77343 1.21636
rclavicle 2.00338e-015 -2.90226e-014
rhumerus -40.2254 -9.47243 -77.3315
rradius 23.4616
rwrist 9.21085
rhand 4.72405 -23.3608
rfingers 7.12502
rthumb 30.1067 -50.9287
lclavicle 2.00338e-015 -2.90226e-014
lhumerus -32.1569 -7.52068 85.8851
lradius 22.5534
lwrist 8.04849
lhand -7.36838 -13.7864
lfingers 7.12502
lthumb 18.5165 15.3523
rfemur 2.59543 9.35495 20.0096
rtibia 2.45961
rfoot -22.7372 -19.8088
rtoes 1.1421
lfemur -2.83788 -2.74551 -18.3522
ltibia 7.13536
lfoot -7.10811 -8.79607
ltoes 26.2816
200
root 6.58414 18.0934 -31.9109 5.42739 4.23156 1.14718
lowerback -6.67448 0.596846 -0.816546
upperback -1.63393 0.893942 -1.72945
thorax 2.07212 0.444849 -1.24701
lowerneck -2.41267 -2.74539 -1.13324
upperneck 8.58542 -3.90559 3.41823
head 3.28539 -1.85001 1.16962
rclavicle 3.76448e-015 -1.51076e-014
rhumerus -40.7776 -9.46339 -77.3644
rradius 23.6324
rwrist 9.10866
rhand 4.77914 -23.4481
rfingers 7.12502
rthumb 30.1593 -51.0064
lclavicle 3.76448e-015 -1.51076e-014
lhumerus -32.522 -7.8745 85.9332
lradius 22.6085
lwrist 8.17754
lhand -7.43748 -13.8147
lfingers 7.12502
lthumb 18.45 15.3304
rfemur 2.56643 9.06748 19.9
rtibia 2.59116
rfoot -22.8798 -19.4984
rtoes 0.6252
lfemur -2.94626 -2.91897 -18.464
ltibia 7.4668
lfoot -7.54946 -8.75377
ltoes 25.3118
201
root 6.59361 18.0936 -31.9051 5.40546 4.15392 1.06675
lowerback -6.69747 0.569848 -0.766177
upperback -1.45828 0.855469 -1.62343
thorax 2.26435 0.425685 -1.1682
lowerneck -2.79211 -2.72252 -1.25869
upperneck 8.66463 -3.8543 3.24206
head 3.3819 -1.83065 1.13146
rclavicle 3.926e-015 3.06128e-014
rhumerus -40.3695 -9.12979 -77.4257
rradius 23.5004
rwrist 9.05701
rhand 4.76732 -23.6446
rfingers 7.12502
rthumb 30.148 -51.205
lclavicle 3.926e-015 3.06128e-014
lhumerus -32.2021 -7.3669 85.8783
lradius 22.4487
lwrist 8.0214
lhand -7.52815 -13.8617
lfingers 7.12502
lthumb 18.3628 15.2915
rfemur 2.46758 8.82656 19.8985
rtibia 2.81662
rfoot -22.9735 -19.241
rtoes -0.157533
lfemur -3.01969 -3.00585 -18.4384
ltibia 7.68031
lfoot -7.87053 -8.78572
ltoes 24.7822
202
root 6.5981 18.0925 -31.9016 5.3984 4.14739 0.99126
lowerback -6.43926 0.557216 -0.760231
upperback -1.58741 0.830124 -1.57601
thorax 1.98648 0.413143 -1.12778
lowerneck -2.61153 -2.728 -1.12108
upperneck 8.7812 -3.85107 2.98347
head 3.37645 -1.83482 1.02432
rclavicle 1.38217e-014 1.47101e-014
rhumerus -40.4135 -9.17525 -77.3055
rradius 23.2129
rwrist 9.33666
rhand 4.70888 -23.5248
rfingers 7.12502
rthumb 30.0923 -51.0953
lclavicle 1.38217e-014 1.47101e-014
lhumerus -32.4881 -7.07625 85.8226
lradius 22.4029
lwrist 7.79713
lhand -7.66065 -13.9354
lfingers 7.12502
lthumb 18.2353 15.2299
rfemur 2.35203 8.69149 19.9401
rtibia 3.06361
rfoot -23.2011 -18.9752
rtoes -0.202005
lfemur -3.14162 -3.11348 -18.3859
ltibia 7.9313
lfoot -8.00433 -8.9032
ltoes 25.1451
203
root 6.60291 18.0919 -31.8969 5.40297 4.07473 0.978745
lowerback -6.27198 0.48796 -0.829668
upperback -1.51312 0.738624 -1.48883
thorax 1.96637 0.367154 -1.00741
lowerneck -2.82704 -2.73659 -1.24859
upperneck 8.84784 -3.84335 2.83522
head 3.43973 -1.83842 0.995643
rclavicle 1.20265e-014 -1.23246e-014
rhumerus -40.0127 -9.21482 -77.1778
rradius 22.8703
rwrist 9.74651
rhand 4.84891 -23.3791
rfingers 7.12502
rthumb 30.2259 -50.9253
lclavicle 1.20265e-014 -1.23246e-014
lhumerus -32.4114 -6.51855 85.7235
lradius 22.3853
lwrist 7.56398
lhand -7.69337 -14.0259
lfingers 7.12502
lthumb 18.2039 15.1423
rfemur 2.25715 8.63405 19.9059
rtibia 3.26802
rfoot -23.4882 -18.6876
rtoes -0.178181
lfemur -3.28979 -3.31063 -18.4431
ltibia 8.24451
lfoot -8.25539 -8.92485
ltoes 25.5404
